<?xml version="1.0" encoding="utf-8"?>
<!-- Generator: Adobe Illustrator 19.1.0, SVG Export Plug-In . SVG Version: 6.00 Build 0)  -->
<svg version="1.1" id="Layer_1" xmlns="http://www.w3.org/2000/svg" xmlns:xlink="http://www.w3.org/1999/xlink" x="0px" y="0px"
	 viewBox="0 0 500 154" style="enable-background:new 0 0 500 154;" xml:space="preserve">
<style type="text/css">
	.st0{fill:none;}
	.st1{enable-background:new    ;}
	.st2{fill:#FFFFFF;}
	.st3{font-family:'COCOMAT-Light';}
	.st4{font-size:97.9692px;}
	.st5{letter-spacing:-5;}
	.st6{fill:#006838;}
	.st7{fill:#8BC53F;}
	.st8{fill:#009345;}
</style>
<g>
	<rect x="14.1" y="15.6" class="st0" width="309.3" height="102"/>
	<rect x="14.1" y="10.4" class="st0" width="306" height="112.4"/>
	<g class="st1">
		<path class="st2" d="M39.6,23c1.3,0.1,2,0.8,2,2v1.5c0,0.6-0.2,1.1-0.6,1.4c-0.4,0.3-0.8,0.5-1.3,0.5h-0.3c-1.4,0-2.7,0.1-3.8,0.3
			c-1.2,0.2-2.1,0.7-3,1.4c-0.8,0.7-1.4,1.7-1.9,3.1s-0.7,3.1-0.7,5.3v9.4h8.5c0.6,0,1,0.2,1.4,0.5c0.4,0.3,0.5,0.8,0.5,1.5V51
			c0,0.7-0.2,1.2-0.5,1.5c-0.4,0.4-0.8,0.6-1.4,0.6h-8.5v41c0,0.6-0.2,1.1-0.6,1.4S28.6,96,28.1,96h-1.6c-0.6,0-1.1-0.2-1.4-0.5
			c-0.3-0.4-0.5-0.8-0.5-1.4v-41h-6c-0.6,0-1-0.2-1.4-0.6c-0.3-0.4-0.5-0.9-0.5-1.5v-1.1c0-1.3,0.6-2,1.9-2h6v-9.7
			c0-4.9,1.1-8.6,3.4-11.3c2.3-2.7,5.5-4,9.8-4c0.3,0,0.6,0,0.9,0S39.3,22.9,39.6,23z"/>
		<path class="st2" d="M95.4,94.2c0,0.6-0.2,1-0.5,1.3c-0.4,0.3-0.8,0.5-1.5,0.5h-1.6c-1.3,0-2-0.7-2-2v-8.5
			c-0.6,1.8-1.5,3.5-2.6,4.9s-2.5,2.6-4,3.6c-1.6,1-3.3,1.7-5.2,2.3c-1.9,0.5-3.9,0.8-6,0.8c-3.3,0-6.4-0.7-9.3-2
			c-2.9-1.3-5.4-3.1-7.5-5.3c-2.1-2.3-3.8-4.9-5-7.9c-1.2-3-1.8-6.3-1.8-9.7c0-3.5,0.6-6.7,1.8-9.8c1.2-3.1,2.8-5.7,4.9-8
			c2.1-2.3,4.6-4.1,7.5-5.4c2.9-1.3,6-2,9.4-2c2.2,0,4.2,0.3,6.1,0.8c1.9,0.6,3.7,1.3,5.3,2.4c1.6,1,2.9,2.2,4,3.6
			c1.1,1.4,1.9,2.9,2.4,4.6l0.2-8.4c0-0.7,0.2-1.2,0.5-1.5s0.8-0.5,1.4-0.5h1.4c0.6,0,1.1,0.2,1.4,0.5c0.4,0.3,0.6,0.8,0.6,1.5V94.2
			z M89.9,72.1c0-2.7-0.4-5.2-1.3-7.6c-0.9-2.4-2.1-4.5-3.6-6.3c-1.6-1.8-3.4-3.2-5.6-4.3c-2.2-1-4.6-1.6-7.2-1.6
			c-2.6,0-5.1,0.5-7.3,1.6c-2.2,1-4.1,2.5-5.7,4.2c-1.6,1.8-2.8,3.9-3.7,6.2C54.5,66.8,54,69.3,54,72s0.4,5.2,1.3,7.6
			c0.9,2.4,2.1,4.4,3.7,6.2c1.6,1.8,3.5,3.2,5.7,4.2c2.2,1,4.6,1.5,7.2,1.5c2.6,0,5-0.5,7.2-1.5c2.2-1,4.1-2.4,5.6-4.1
			c1.6-1.7,2.8-3.8,3.7-6.2C89.4,77.3,89.9,74.8,89.9,72.1z"/>
		<path class="st2" d="M109.9,50.1c0-1.5,0.7-2.3,2.2-2.3h1.1c1.6,0,2.4,0.8,2.4,2.3v2v3.1c0.5-1.2,1.1-2.3,1.9-3.3
			c0.8-1,1.8-1.8,2.9-2.5c1.1-0.7,2.3-1.2,3.7-1.6c1.4-0.4,2.8-0.6,4.3-0.6c1,0,2.1,0.1,3.3,0.4c1.2,0.3,2.3,0.6,3.4,1
			c1.1,0.4,2,0.9,2.7,1.4c0.7,0.5,1.1,1.1,1.1,1.6c0,0.3-0.1,0.7-0.3,1.1c-0.2,0.4-0.4,0.8-0.7,1.2c-0.3,0.4-0.6,0.7-0.9,1
			c-0.3,0.3-0.5,0.4-0.7,0.4c-0.3,0-0.5,0-0.6,0c-0.1,0-0.3-0.1-0.5-0.2c-0.9-0.6-2-1.1-3.3-1.6c-1.2-0.5-2.5-0.7-3.8-0.7
			c-1.8,0-3.5,0.4-5,1.2s-2.8,1.9-3.9,3.3c-1.1,1.4-2,3-2.6,4.8s-1,3.6-1,5.5l0,26.5c0,1.2-0.6,1.8-1.8,1.8h-0.4h-1.6
			c-1.2,0-1.9-0.6-1.9-1.8v-0.5V50.1z"/>
		<path class="st2" d="M155.3,94.1c0,1.2-0.6,1.8-1.8,1.8h-2c-1.2,0-1.9-0.6-1.9-1.8V49.2c0-0.5,0.1-0.8,0.4-1.1
			c0.3-0.3,0.6-0.4,1.1-0.4h2.9c0.7,0,1.1,0.4,1.1,1.1l0.1,5.8c0.7-1,1.5-2,2.4-2.9c0.9-0.9,1.9-1.7,3-2.3c1.1-0.7,2.3-1.2,3.6-1.6
			c1.3-0.4,2.7-0.6,4.2-0.6c1.9,0,3.6,0.3,5.2,0.8c1.6,0.5,3.1,1.2,4.5,2.1c1.4,0.9,2.6,2,3.6,3.2c1,1.2,1.9,2.6,2.6,4
			c0.7-1.5,1.5-2.9,2.5-4.1c1-1.3,2.2-2.3,3.5-3.2c1.3-0.9,2.7-1.6,4.3-2.1s3.2-0.7,5-0.7c2.3,0,4.5,0.4,6.5,1.2
			c2,0.8,3.8,1.9,5.3,3.4c1.6,1.4,2.8,3.1,3.8,5c1,1.9,1.6,4,1.9,6.3c0.2,1.7,0.3,3.4,0.3,5.1v25.8c0,0.7-0.2,1.1-0.5,1.5
			c-0.4,0.3-0.8,0.5-1.4,0.5h-1.8c-1.3,0-2-0.6-2-1.9V65.5c0-1.8-0.4-3.4-1-5c-0.6-1.6-1.4-2.9-2.5-4.1c-1.1-1.1-2.4-2-3.9-2.7
			c-1.5-0.7-3.1-1-4.9-1c-1.5,0-3,0.3-4.4,0.8c-1.4,0.5-2.7,1.2-3.8,2.2c-1.1,0.9-2.1,2-2.8,3.3c-0.8,1.3-1.3,2.6-1.6,4.1
			c-0.2,0.8-0.3,1.6-0.4,2.4c-0.1,0.8-0.1,1.6-0.1,2.5v25.9c0,1.3-0.6,2-1.9,2h-2c-1.2,0-1.9-0.6-1.9-1.9V65.4
			c0-1.8-0.4-3.4-1.1-4.9c-0.7-1.5-1.6-2.9-2.7-4c-1.1-1.1-2.4-2-3.9-2.7c-1.5-0.7-3.1-1-4.9-1c-1.8,0-3.4,0.3-5,1
			c-1.6,0.7-2.9,1.6-4.1,2.8c-1.2,1.2-2.1,2.5-2.7,4.1c-0.7,1.6-1,3.2-1,5V94.1z"/>
		<path class="st2" d="M255.3,57.7c-1-1.7-2.4-3.1-4.2-4.2c-1.8-1.1-3.8-1.6-6-1.6c-1.4,0-2.7,0.2-3.9,0.6c-1.2,0.4-2.2,0.9-3,1.7
			c-0.8,0.7-1.5,1.6-2,2.6c-0.5,1-0.7,2.1-0.7,3.3c0,1.2,0.3,2.2,0.9,3.1c0.6,0.9,1.4,1.7,2.3,2.3c0.9,0.6,1.9,1.2,3,1.6
			c1.1,0.4,2.1,0.8,3.1,1l1.5,0.4c2.4,0.7,4.5,1.5,6.4,2.4c1.9,0.9,3.5,2,4.9,3.3s2.4,2.6,3.1,4.1c0.7,1.5,1.1,3.1,1.1,4.8
			c0,2.2-0.5,4.2-1.4,5.9c-0.9,1.7-2.1,3.2-3.7,4.4s-3.3,2.1-5.4,2.7c-2,0.6-4.2,0.9-6.4,0.9c-1.9,0-3.6-0.2-5.4-0.6
			s-3.3-1.1-4.8-1.9c-1.5-0.8-2.7-1.9-3.8-3.1c-1.1-1.3-1.9-2.7-2.4-4.3c-0.1-0.2-0.1-0.4-0.1-0.6c0-0.3,0.1-0.5,0.3-0.9
			c0.2-0.3,0.5-0.5,0.9-0.7l1.9-0.8c0.3-0.1,0.5-0.1,0.7-0.1c0.3,0,0.6,0.1,0.8,0.3c0.2,0.2,0.4,0.4,0.6,0.7l0.2,0.5
			c0.5,1,1.2,2,2.1,2.8c0.9,0.8,1.8,1.5,2.8,2.1c1,0.6,2.1,1,3.1,1.2c1.1,0.3,2,0.4,2.9,0.4c1.2,0,2.4-0.2,3.8-0.5
			c1.3-0.3,2.6-0.9,3.7-1.6c1.1-0.7,2.1-1.6,2.8-2.7c0.8-1.1,1.1-2.4,1.1-3.9c0-1.4-0.4-2.6-1.1-3.7c-0.8-1.1-1.7-2-2.9-2.7
			c-1.2-0.8-2.5-1.4-3.9-1.9c-1.4-0.5-2.8-0.9-4.2-1.3c-1.7-0.5-3.4-1.1-5.1-2c-1.7-0.8-3.2-1.8-4.5-2.9s-2.4-2.4-3.2-3.8
			c-0.8-1.4-1.2-3-1.2-4.7c0-2,0.4-3.8,1.1-5.4c0.7-1.6,1.7-3,3-4.2c1.3-1.2,2.9-2.1,4.7-2.7c1.8-0.6,3.9-1,6.1-1
			c3.3,0,6.2,0.7,8.8,2.1c2.6,1.4,4.8,3.6,6.5,6.6c0.2,0.4,0.2,0.7,0.2,1c0,0.2-0.1,0.5-0.2,0.7c-0.1,0.2-0.3,0.4-0.6,0.6l-1.7,1
			c-0.5,0.3-0.8,0.4-1.2,0.4c-0.4,0-0.6-0.1-0.8-0.3c-0.2-0.2-0.4-0.5-0.6-0.8L255.3,57.7L255.3,57.7z"/>
		<path class="st2" d="M273.6,25c0-1.2,0.6-1.8,1.8-1.8h1.5c0.5,0,0.9,0.1,1.2,0.4s0.5,0.6,0.6,1.1c0.1,0.5,0.2,1,0.3,1.6
			c0,0.6,0,1.2,0,1.8v2.4v25c0.8-1.3,1.7-2.4,2.8-3.5c1.1-1.1,2.3-2,3.7-2.7c1.4-0.8,2.8-1.4,4.4-1.8s3.2-0.6,4.8-0.6
			c2.8,0,5.4,0.5,7.7,1.6c2.4,1.1,4.4,2.5,6.2,4.3c1.7,1.8,3.1,4,4.1,6.4c1,2.5,1.5,5.1,1.5,7.9V94c0,0.7-0.2,1.1-0.5,1.4
			s-0.8,0.5-1.3,0.5h-1.7c-0.7,0-1.2-0.1-1.4-0.4c-0.3-0.3-0.4-0.8-0.4-1.4V67c-0.1-2-0.6-3.9-1.3-5.7c-0.7-1.8-1.7-3.4-3-4.7
			c-1.3-1.3-2.8-2.4-4.6-3.2c-1.8-0.8-3.8-1.2-6-1.2c-2,0-3.9,0.4-5.7,1.1c-1.8,0.7-3.3,1.7-4.7,3c-1.4,1.3-2.4,2.8-3.2,4.6
			c-0.8,1.7-1.2,3.6-1.2,5.6v27.6c0,0.6-0.2,1-0.5,1.3c-0.3,0.3-0.8,0.4-1.3,0.4h-1.7c-1.2,0-1.9-0.6-1.9-1.8V25z"/>
	</g>
	<text transform="matrix(1 0 0 1 320.0038 95.8707)" class="st2 st3 st4 st5"> </text>
	<text transform="matrix(1 0 0 1 343.2548 95.8707)" class="st2 st3 st4 st5">  </text>
	<rect x="130.5" y="104.5" class="st0" width="242.4" height="36"/>
	<g class="st1">
		<path class="st2" d="M147,128.6L147,128.6v0.8c0,0.1,0,0.3,0,0.4s0,0.2,0,0.4c0,1.3-0.2,2.5-0.6,3.5c-0.4,1-1,1.8-1.7,2.5
			c-0.7,0.7-1.5,1.2-2.4,1.5c-0.9,0.3-1.9,0.5-2.8,0.5c-0.8,0-1.5-0.1-2.2-0.3c-0.6-0.2-1.3-0.5-1.9-0.8h0c-0.1-0.1-0.2-0.1-0.3-0.2
			c-0.1-0.1-0.1-0.1-0.1-0.2c0-0.1,0-0.1,0.1-0.2c0.1-0.1,0.1-0.2,0.2-0.3c0.1-0.1,0.2-0.2,0.2-0.3c0.1-0.1,0.1-0.2,0.1-0.2
			c0.1-0.1,0.1-0.2,0.2-0.2c0.1,0,0.2,0,0.3,0c0.1,0,0.2,0.1,0.3,0.1c0.1,0.1,0.2,0.1,0.3,0.2c0.4,0.2,0.8,0.3,1.3,0.5
			c0.4,0.1,0.9,0.2,1.3,0.2c0.7,0,1.4-0.1,2.1-0.4s1.3-0.6,1.8-1.1c0.5-0.5,1-1.1,1.3-1.9c0.3-0.7,0.5-1.6,0.5-2.6v-1.6
			c-0.2,0.6-0.5,1-0.9,1.5c-0.4,0.4-0.8,0.8-1.3,1.1c-0.5,0.3-1.1,0.5-1.7,0.7c-0.6,0.2-1.2,0.2-1.9,0.2c-1.1,0-2.1-0.2-3-0.6
			c-0.9-0.4-1.7-1-2.4-1.7c-0.7-0.7-1.2-1.6-1.6-2.5c-0.4-1-0.6-2-0.6-3.1s0.2-2.2,0.6-3.1c0.4-1,0.9-1.8,1.6-2.6
			c0.7-0.7,1.5-1.3,2.4-1.7c0.9-0.4,1.9-0.6,3-0.6c0.7,0,1.4,0.1,2,0.3s1.2,0.4,1.7,0.8c0.5,0.3,1,0.7,1.3,1.2
			c0.4,0.4,0.6,0.9,0.8,1.5l0.1-2.7c0-0.2,0.1-0.4,0.2-0.5c0.1-0.1,0.2-0.2,0.5-0.2h0.5c0.2,0,0.3,0.1,0.5,0.2
			c0.1,0.1,0.2,0.3,0.2,0.5V128.6z M145.2,124.3c0-0.9-0.1-1.7-0.4-2.4c-0.3-0.8-0.7-1.4-1.2-2c-0.5-0.6-1.1-1-1.9-1.4
			c-0.7-0.3-1.5-0.5-2.3-0.5c-0.8,0-1.6,0.2-2.3,0.5c-0.7,0.3-1.3,0.8-1.8,1.4c-0.5,0.6-0.9,1.2-1.2,2s-0.4,1.6-0.4,2.4
			c0,0.9,0.1,1.7,0.4,2.4s0.7,1.4,1.2,2c0.5,0.6,1.1,1,1.8,1.3s1.5,0.5,2.3,0.5c0.8,0,1.6-0.2,2.3-0.5s1.3-0.8,1.9-1.3
			c0.5-0.6,0.9-1.2,1.2-2C145.1,126,145.2,125.2,145.2,124.3z"/>
		<path class="st2" d="M151.5,117.3c0-0.5,0.2-0.7,0.7-0.7h0.3c0.5,0,0.8,0.2,0.8,0.7v0.6v1c0.1-0.4,0.4-0.7,0.6-1
			c0.3-0.3,0.6-0.6,0.9-0.8c0.3-0.2,0.7-0.4,1.2-0.5c0.4-0.1,0.9-0.2,1.4-0.2c0.3,0,0.7,0,1.1,0.1c0.4,0.1,0.8,0.2,1.1,0.3
			c0.3,0.1,0.6,0.3,0.9,0.5c0.2,0.2,0.3,0.3,0.3,0.5c0,0.1,0,0.2-0.1,0.4c-0.1,0.1-0.1,0.3-0.2,0.4c-0.1,0.1-0.2,0.2-0.3,0.3
			c-0.1,0.1-0.2,0.1-0.2,0.1c-0.1,0-0.1,0-0.2,0c0,0-0.1,0-0.2-0.1c-0.3-0.2-0.7-0.4-1.1-0.5c-0.4-0.2-0.8-0.2-1.2-0.2
			c-0.6,0-1.1,0.1-1.6,0.4s-0.9,0.6-1.3,1.1s-0.6,1-0.8,1.5c-0.2,0.6-0.3,1.2-0.3,1.8l0,8.5c0,0.4-0.2,0.6-0.6,0.6h-0.1h-0.5
			c-0.4,0-0.6-0.2-0.6-0.6v-0.2V117.3z"/>
		<path class="st2" d="M162.5,124.3c0-1.1,0.2-2.2,0.6-3.1c0.4-1,1-1.8,1.7-2.6c0.7-0.7,1.6-1.3,2.5-1.7s2-0.6,3.1-0.6
			c1.1,0,2.2,0.2,3.1,0.6s1.8,1,2.6,1.7c0.7,0.7,1.3,1.6,1.7,2.6c0.4,1,0.6,2,0.6,3.1s-0.2,2.1-0.6,3.1s-1,1.8-1.7,2.5
			c-0.7,0.7-1.6,1.3-2.6,1.7s-2,0.6-3.1,0.6c-1.1,0-2.1-0.2-3.1-0.6s-1.8-1-2.5-1.7c-0.7-0.7-1.3-1.6-1.7-2.5
			S162.5,125.4,162.5,124.3z M164.2,124.3c0,0.9,0.2,1.7,0.5,2.4c0.3,0.8,0.8,1.4,1.4,2c0.6,0.6,1.2,1,2,1.4
			c0.8,0.3,1.6,0.5,2.4,0.5c0.9,0,1.7-0.2,2.4-0.5s1.4-0.8,2-1.4c0.6-0.6,1-1.2,1.4-2c0.3-0.8,0.5-1.6,0.5-2.4s-0.2-1.7-0.5-2.5
			c-0.3-0.8-0.8-1.4-1.4-2c-0.6-0.6-1.2-1-2-1.4c-0.8-0.3-1.6-0.5-2.4-0.5c-0.9,0-1.7,0.2-2.4,0.5c-0.8,0.3-1.4,0.8-2,1.4
			c-0.6,0.6-1,1.2-1.4,2C164.4,122.6,164.2,123.4,164.2,124.3z"/>
		<path class="st2" d="M185.9,127.5c0.1,0.2,0.2,0.4,0.3,0.6c0.1,0.2,0.2,0.4,0.3,0.6l0.6-1.3c0.6-1.4,1.2-2.8,1.7-4.1
			c0.5-1.4,1.1-2.8,1.7-4.1h0l0.9-2.1c0.1-0.2,0.2-0.4,0.4-0.4c0.2-0.1,0.4-0.1,0.6-0.1c0.2,0,0.4,0,0.5,0.1
			c0.1,0.1,0.2,0.2,0.2,0.4c0,0.1,0,0.2,0,0.2c-0.2,0.5-0.5,1.1-0.7,1.6c-0.2,0.5-0.5,1.1-0.7,1.6l2.9,6.9c0.1,0.2,0.2,0.4,0.3,0.7
			s0.2,0.4,0.3,0.7l0.5-1.3c0.7-1.8,1.4-3.5,2.2-5.2c0.7-1.7,1.5-3.5,2.2-5.2c0.1-0.2,0.2-0.3,0.5-0.4s0.5-0.1,0.7-0.1
			c0.2,0,0.3,0.1,0.4,0.2c0.1,0.1,0.2,0.2,0.2,0.3c0,0.1,0,0.2,0,0.3c-1,2.5-2.1,4.9-3.1,7.3c-1,2.4-2,4.9-3.1,7.3
			c0,0.1-0.1,0.2-0.2,0.2c-0.1,0.1-0.2,0.1-0.3,0.1c-0.1,0-0.2-0.1-0.3-0.2h0c-0.1-0.1-0.2-0.2-0.2-0.3c-0.1-0.1-0.1-0.2-0.2-0.4
			l-3.7-8.7l-3.9,9.3c0,0.1-0.1,0.1-0.1,0.2c-0.1,0.1-0.2,0.1-0.3,0.1h0c-0.1,0-0.2,0-0.3-0.1c-0.1-0.1-0.1-0.2-0.2-0.3l-6.1-14.6
			c0,0,0-0.1,0-0.1s0-0.1,0-0.2c0-0.1,0.1-0.2,0.2-0.3s0.2-0.1,0.4-0.1h0.6c0.1,0,0.3,0,0.4,0.1s0.2,0.2,0.2,0.3L185.9,127.5z"/>
		<path class="st2" d="M204.7,112c0-0.4,0.1-0.7,0.4-1c0.3-0.3,0.6-0.4,1-0.4c0.4,0,0.7,0.1,1,0.4c0.3,0.3,0.4,0.6,0.4,1
			c0,0.4-0.1,0.7-0.4,1c-0.3,0.3-0.6,0.4-1,0.4c-0.4,0-0.7-0.1-1-0.4S204.7,112.3,204.7,112z M205.2,117.1c0-0.2,0.1-0.3,0.2-0.4
			c0.1-0.1,0.3-0.2,0.4-0.2h0.6c0.2,0,0.3,0.1,0.4,0.2c0.1,0.1,0.1,0.2,0.1,0.4v14.2c0,0.4-0.2,0.6-0.6,0.6h-0.5
			c-0.4,0-0.6-0.2-0.6-0.6V117.1z"/>
		<path class="st2" d="M213.6,131.4c0,0.4-0.2,0.6-0.6,0.6h-0.6c-0.4,0-0.6-0.2-0.6-0.6V117c0-0.1,0-0.3,0.1-0.4s0.2-0.1,0.4-0.1
			h0.9c0.1,0,0.2,0,0.2,0.1s0.1,0.1,0.1,0.3l0,2.1c0.3-0.4,0.6-0.7,0.9-1.1c0.4-0.3,0.7-0.6,1.2-0.9c0.4-0.2,0.9-0.4,1.4-0.6
			c0.5-0.1,1-0.2,1.5-0.2c0.9,0,1.7,0.2,2.5,0.5c0.8,0.3,1.4,0.8,2,1.4c0.6,0.6,1,1.3,1.3,2.1c0.3,0.8,0.5,1.6,0.5,2.5v8.6
			c0,0.2-0.1,0.4-0.2,0.5c-0.1,0.1-0.3,0.2-0.4,0.2h-0.6c-0.2,0-0.4,0-0.4-0.1c-0.1-0.1-0.1-0.3-0.1-0.5v-8.6c0-0.6-0.1-1.3-0.4-1.8
			s-0.6-1.1-1-1.5c-0.4-0.4-0.9-0.7-1.5-1c-0.6-0.2-1.2-0.4-1.8-0.4c-0.6,0-1.2,0.1-1.8,0.3c-0.6,0.2-1.1,0.5-1.5,0.9
			s-0.8,0.9-1.1,1.4c-0.3,0.5-0.4,1.1-0.4,1.8V131.4z"/>
		<path class="st2" d="M243.1,128.6L243.1,128.6v0.8c0,0.1,0,0.3,0,0.4s0,0.2,0,0.4c0,1.3-0.2,2.5-0.6,3.5c-0.4,1-1,1.8-1.7,2.5
			c-0.7,0.7-1.5,1.2-2.4,1.5c-0.9,0.3-1.9,0.5-2.8,0.5c-0.8,0-1.5-0.1-2.2-0.3c-0.6-0.2-1.3-0.5-1.9-0.8h0c-0.1-0.1-0.2-0.1-0.3-0.2
			c-0.1-0.1-0.1-0.1-0.1-0.2c0-0.1,0-0.1,0.1-0.2c0.1-0.1,0.1-0.2,0.2-0.3c0.1-0.1,0.2-0.2,0.2-0.3c0.1-0.1,0.1-0.2,0.1-0.2
			c0.1-0.1,0.1-0.2,0.2-0.2c0.1,0,0.2,0,0.3,0c0.1,0,0.2,0.1,0.3,0.1c0.1,0.1,0.2,0.1,0.3,0.2c0.4,0.2,0.8,0.3,1.3,0.5
			c0.4,0.1,0.9,0.2,1.3,0.2c0.7,0,1.4-0.1,2.1-0.4s1.3-0.6,1.8-1.1c0.5-0.5,1-1.1,1.3-1.9c0.3-0.7,0.5-1.6,0.5-2.6v-1.6
			c-0.2,0.6-0.5,1-0.9,1.5c-0.4,0.4-0.8,0.8-1.3,1.1c-0.5,0.3-1.1,0.5-1.7,0.7c-0.6,0.2-1.2,0.2-1.9,0.2c-1.1,0-2.1-0.2-3-0.6
			c-0.9-0.4-1.7-1-2.4-1.7c-0.7-0.7-1.2-1.6-1.6-2.5c-0.4-1-0.6-2-0.6-3.1s0.2-2.2,0.6-3.1c0.4-1,0.9-1.8,1.6-2.6
			c0.7-0.7,1.5-1.3,2.4-1.7c0.9-0.4,1.9-0.6,3-0.6c0.7,0,1.4,0.1,2,0.3s1.2,0.4,1.7,0.8c0.5,0.3,1,0.7,1.3,1.2
			c0.4,0.4,0.6,0.9,0.8,1.5l0.1-2.7c0-0.2,0.1-0.4,0.2-0.5c0.1-0.1,0.2-0.2,0.5-0.2h0.5c0.2,0,0.3,0.1,0.5,0.2
			c0.1,0.1,0.2,0.3,0.2,0.5V128.6z M241.3,124.3c0-0.9-0.1-1.7-0.4-2.4c-0.3-0.8-0.7-1.4-1.2-2c-0.5-0.6-1.1-1-1.9-1.4
			c-0.7-0.3-1.5-0.5-2.3-0.5c-0.8,0-1.6,0.2-2.3,0.5c-0.7,0.3-1.3,0.8-1.8,1.4c-0.5,0.6-0.9,1.2-1.2,2s-0.4,1.6-0.4,2.4
			c0,0.9,0.1,1.7,0.4,2.4s0.7,1.4,1.2,2c0.5,0.6,1.1,1,1.8,1.3s1.5,0.5,2.3,0.5c0.8,0,1.6-0.2,2.3-0.5s1.3-0.8,1.9-1.3
			c0.5-0.6,0.9-1.2,1.2-2C241.2,126,241.3,125.2,241.3,124.3z"/>
		<path class="st2" d="M261.9,127.5c0.1,0.2,0.2,0.4,0.3,0.6c0.1,0.2,0.2,0.4,0.3,0.6l0.6-1.3c0.6-1.4,1.2-2.8,1.7-4.1
			s1.1-2.8,1.7-4.1h0l0.9-2.1c0.1-0.2,0.2-0.4,0.4-0.4c0.2-0.1,0.4-0.1,0.6-0.1c0.2,0,0.4,0,0.5,0.1s0.2,0.2,0.2,0.4
			c0,0.1,0,0.2,0,0.2c-0.2,0.5-0.5,1.1-0.7,1.6c-0.2,0.5-0.5,1.1-0.7,1.6l2.9,6.9c0.1,0.2,0.2,0.4,0.3,0.7c0.1,0.2,0.2,0.4,0.3,0.7
			l0.5-1.3c0.7-1.8,1.4-3.5,2.2-5.2c0.7-1.7,1.5-3.5,2.2-5.2c0.1-0.2,0.2-0.3,0.5-0.4s0.5-0.1,0.7-0.1c0.2,0,0.3,0.1,0.4,0.2
			c0.1,0.1,0.2,0.2,0.2,0.3c0,0.1,0,0.2,0,0.3c-1,2.5-2.1,4.9-3.1,7.3c-1,2.4-2,4.9-3.1,7.3c0,0.1-0.1,0.2-0.2,0.2
			c-0.1,0.1-0.2,0.1-0.3,0.1c-0.1,0-0.2-0.1-0.3-0.2h0c-0.1-0.1-0.2-0.2-0.2-0.3c-0.1-0.1-0.1-0.2-0.2-0.4l-3.7-8.7l-3.9,9.3
			c0,0.1-0.1,0.1-0.1,0.2c-0.1,0.1-0.2,0.1-0.3,0.1h0c-0.1,0-0.2,0-0.3-0.1c-0.1-0.1-0.1-0.2-0.2-0.3l-6.1-14.6c0,0,0-0.1,0-0.1
			c0-0.1,0-0.1,0-0.2c0-0.1,0.1-0.2,0.2-0.3s0.2-0.1,0.4-0.1h0.6c0.1,0,0.3,0,0.4,0.1s0.2,0.2,0.2,0.3L261.9,127.5z"/>
		<path class="st2" d="M280.6,112c0-0.4,0.1-0.7,0.4-1c0.3-0.3,0.6-0.4,1-0.4s0.7,0.1,1,0.4c0.3,0.3,0.4,0.6,0.4,1
			c0,0.4-0.1,0.7-0.4,1s-0.6,0.4-1,0.4s-0.7-0.1-1-0.4S280.6,112.3,280.6,112z M281.1,117.1c0-0.2,0.1-0.3,0.2-0.4
			c0.1-0.1,0.3-0.2,0.4-0.2h0.6c0.2,0,0.3,0.1,0.4,0.2s0.1,0.2,0.1,0.4v14.2c0,0.4-0.2,0.6-0.6,0.6h-0.5c-0.4,0-0.6-0.2-0.6-0.6
			V117.1z"/>
		<path class="st2" d="M293.3,130.3c0.2,0,0.3,0,0.5,0.1c0.1,0.1,0.2,0.3,0.2,0.5v0.5c0,0.2-0.1,0.4-0.2,0.5
			c-0.1,0.1-0.3,0.1-0.5,0.1h-0.5c-0.5,0-1,0-1.5-0.1c-0.5-0.1-0.9-0.2-1.2-0.5c-0.3-0.3-0.6-0.6-0.8-1.1s-0.3-1.2-0.3-2v-10.1h-2.2
			c-0.2,0-0.4,0-0.5-0.1c-0.1-0.1-0.1-0.2-0.1-0.4v-0.6c0-0.2,0-0.4,0.1-0.4c0.1-0.1,0.3-0.1,0.5-0.1h2.2v-4.6
			c0-0.3,0.2-0.5,0.5-0.5l0.8-0.1c0.2,0,0.4,0.1,0.4,0.2c0.1,0.1,0.1,0.3,0.1,0.5v4.6h2.7c0.2,0,0.3,0,0.4,0.1
			c0.1,0.1,0.2,0.2,0.2,0.5v0.5c0,0.2-0.1,0.4-0.2,0.5c-0.1,0.1-0.3,0.1-0.4,0.1h-2.7v9.7c0,0.6,0,1,0.1,1.3
			c0.1,0.3,0.2,0.5,0.3,0.7c0.2,0.2,0.4,0.3,0.6,0.3c0.2,0,0.5,0.1,0.9,0.1H293.3z"/>
		<path class="st2" d="M297.5,109.2c0-0.4,0.2-0.6,0.6-0.6h0.5c0.2,0,0.3,0,0.4,0.1c0.1,0.1,0.2,0.2,0.2,0.4c0,0.1,0.1,0.3,0.1,0.5
			c0,0.2,0,0.4,0,0.6v0.8v8c0.2-0.4,0.5-0.8,0.9-1.1c0.3-0.3,0.7-0.6,1.2-0.9c0.4-0.2,0.9-0.4,1.4-0.6c0.5-0.1,1-0.2,1.5-0.2
			c0.9,0,1.7,0.2,2.5,0.5c0.8,0.3,1.4,0.8,2,1.4c0.6,0.6,1,1.3,1.3,2.1s0.5,1.6,0.5,2.5v8.6c0,0.2-0.1,0.4-0.2,0.5
			c-0.1,0.1-0.3,0.1-0.4,0.1h-0.5c-0.2,0-0.4,0-0.5-0.1c-0.1-0.1-0.1-0.2-0.1-0.5v-8.7c0-0.6-0.2-1.3-0.4-1.8
			c-0.2-0.6-0.6-1.1-1-1.5c-0.4-0.4-0.9-0.8-1.5-1c-0.6-0.2-1.2-0.4-1.9-0.4c-0.6,0-1.2,0.1-1.8,0.4c-0.6,0.2-1.1,0.6-1.5,1
			c-0.4,0.4-0.8,0.9-1,1.5c-0.3,0.6-0.4,1.2-0.4,1.8v8.8c0,0.2-0.1,0.3-0.2,0.4c-0.1,0.1-0.3,0.1-0.4,0.1h-0.5
			c-0.4,0-0.6-0.2-0.6-0.6V109.2z"/>
		<path class="st2" d="M328.2,137.6c-0.2,0.3-0.4,0.5-0.8,0.5h-0.5c-0.2,0-0.4-0.1-0.5-0.2s-0.1-0.3,0-0.6l2.4-5.8l-5.9-14.2
			c-0.1-0.3-0.1-0.5,0-0.6c0.1-0.1,0.3-0.2,0.5-0.2h0.7c0.2,0,0.3,0,0.4,0.1c0.1,0.1,0.2,0.2,0.3,0.4l5.1,12.3l5-12.4
			c0.2-0.3,0.4-0.4,0.8-0.4h0.5c0.2,0,0.4,0.1,0.5,0.2c0.1,0.1,0.1,0.3,0,0.6L328.2,137.6z"/>
		<path class="st2" d="M338.1,124.3c0-1.1,0.2-2.2,0.6-3.1c0.4-1,1-1.8,1.7-2.6c0.7-0.7,1.6-1.3,2.5-1.7s2-0.6,3.1-0.6
			c1.1,0,2.2,0.2,3.1,0.6c1,0.4,1.8,1,2.6,1.7c0.7,0.7,1.3,1.6,1.7,2.6c0.4,1,0.6,2,0.6,3.1s-0.2,2.1-0.6,3.1s-1,1.8-1.7,2.5
			c-0.7,0.7-1.6,1.3-2.6,1.7c-1,0.4-2,0.6-3.1,0.6c-1.1,0-2.1-0.2-3.1-0.6s-1.8-1-2.5-1.7c-0.7-0.7-1.3-1.6-1.7-2.5
			S338.1,125.4,338.1,124.3z M339.8,124.3c0,0.9,0.2,1.7,0.5,2.4c0.3,0.8,0.8,1.4,1.4,2c0.6,0.6,1.2,1,2,1.4
			c0.8,0.3,1.6,0.5,2.4,0.5c0.9,0,1.7-0.2,2.4-0.5c0.8-0.3,1.4-0.8,2-1.4c0.6-0.6,1-1.2,1.4-2c0.3-0.8,0.5-1.6,0.5-2.4
			s-0.2-1.7-0.5-2.5c-0.3-0.8-0.8-1.4-1.4-2c-0.6-0.6-1.2-1-2-1.4c-0.8-0.3-1.6-0.5-2.4-0.5c-0.9,0-1.7,0.2-2.4,0.5
			c-0.8,0.3-1.4,0.8-2,1.4c-0.6,0.6-1,1.2-1.4,2C340,122.6,339.8,123.4,339.8,124.3z"/>
		<path class="st2" d="M370.4,131.3c0,0.2-0.1,0.3-0.2,0.4c-0.1,0.1-0.3,0.2-0.4,0.2h-0.5c-0.2,0-0.3-0.1-0.4-0.2
			c-0.1-0.1-0.1-0.2-0.2-0.4c0-0.3,0-0.6,0-0.9c0-0.3,0-0.6,0-0.9c-0.3,0.4-0.6,0.8-0.9,1.1c-0.4,0.3-0.7,0.6-1.2,0.9
			c-0.4,0.2-0.9,0.4-1.4,0.6c-0.5,0.1-1,0.2-1.5,0.2c-0.9,0-1.7-0.2-2.5-0.5c-0.8-0.3-1.4-0.8-2-1.4s-1-1.3-1.3-2.1
			c-0.3-0.8-0.5-1.6-0.5-2.5v-8.6c0-0.2,0.1-0.4,0.2-0.5c0.1-0.1,0.3-0.2,0.4-0.2h0.5c0.2,0,0.4,0.1,0.5,0.2
			c0.1,0.1,0.1,0.3,0.1,0.5v8.7c0,0.7,0.1,1.3,0.4,1.8c0.2,0.6,0.6,1.1,1,1.5c0.4,0.4,0.9,0.8,1.5,1c0.6,0.2,1.2,0.4,1.9,0.4
			c0.6,0,1.3-0.1,1.8-0.4c0.6-0.2,1.1-0.6,1.5-1c0.4-0.4,0.8-0.9,1-1.5s0.4-1.2,0.4-1.8v-8.8c0-0.4,0.2-0.6,0.6-0.6h0.5
			c0.4,0,0.6,0.2,0.6,0.6V131.3z"/>
	</g>
	<g>
		<path class="st6" d="M348.4,77.1c11.3,7.2,23.1,12.7,35.8,16.6c-2.2,1.8-4.4,3.2-6.9,4.4c-5.1,2.4-10.5,3.7-16.1,3.5
			c-2.9-0.1-5.7-0.8-8.6-1.3c-0.6-0.1-0.7-0.5-0.8-1c-0.9-5.2-1.8-10.4-2.7-15.6C348.8,81.5,348.7,79.4,348.4,77.1z"/>
		<path class="st7" d="M396.7,61.1c0.5,2.9,0.7,5.6,0.3,8.4c-0.8,8.6-4.2,15.9-10.3,22c-0.5,0.5-1,0.7-1.7,0.4
			c-6.7-2.1-13.3-4.6-19.6-7.6c-0.3-0.1-0.6-0.3-1-0.5C376.2,77.6,386.9,70.1,396.7,61.1z"/>
		<path class="st7" d="M374.6,34c0.8,0.4,1.5,0.6,2.2,0.9c9.9,4.8,16.3,12.5,19.3,23.1c0.1,0.5,0.1,0.8-0.3,1.2
			c-5.4,5-11.1,9.7-17.2,13.8c-0.1,0.1-0.1,0.1-0.4,0.2C378.7,60,377.6,47,374.6,34z"/>
		<path class="st8" d="M360,49.4c-11.8,6.1-22.4,13.7-32.3,22.7c-0.1-1.4-0.3-2.7-0.3-3.9c-0.4-10.2,3-18.9,10.1-26.3
			c0.7-0.7,1.2-0.9,2.2-0.6c6.7,2.2,13.3,4.6,19.6,7.6C359.4,49.2,359.6,49.3,360,49.4z"/>
		<path class="st6" d="M349.5,99.3c-1.9-1-3.9-1.9-5.7-3c-7.9-5-13.1-12-15.5-21c-0.2-0.7-0.1-1,0.5-1.4c5.2-4.8,10.7-9.3,16.6-13.3
			c0.2-0.1,0.5-0.3,0.8-0.5c-0.6,13.3,0.6,26.3,3.5,39.1C349.6,99.1,349.6,99.2,349.5,99.3z"/>
		<path class="st8" d="M375.8,56c-11.2-7.1-23-12.6-35.7-16.5c0.6-0.5,1-0.8,1.4-1.1c9.2-6.5,19.2-8.2,30.1-5.4
			c0.5,0.1,0.8,0.4,0.9,0.9c1.6,7.2,2.7,14.4,3.3,21.7C375.9,55.7,375.9,55.8,375.8,56z"/>
	</g>
	<polyline class="st0" points="485.9,117.6 406.8,117.6 406.8,15.6 485.9,15.6 	"/>
	<rect x="406.8" y="15.6" class="st0" width="72.1" height="112.4"/>
	<g class="st1">
		<path class="st2" d="M431.6,96.1c0.6,0,1,0.2,1.4,0.5c0.4,0.3,0.6,0.8,0.6,1.4v1.6c0,0.8-0.2,1.3-0.7,1.5c-0.4,0.3-1,0.4-1.6,0.4
			h-1.5c-1.7,0-3.2-0.1-4.7-0.3c-1.4-0.2-2.7-0.7-3.7-1.5c-1-0.8-1.9-2-2.5-3.5c-0.6-1.6-0.9-3.7-0.9-6.3V58.4h-6.8
			c-0.7,0-1.1-0.1-1.4-0.4c-0.3-0.3-0.5-0.7-0.5-1.4v-1.8c0-0.7,0.2-1.1,0.5-1.4c0.3-0.3,0.8-0.4,1.4-0.4h6.8V38.6
			c0-1,0.5-1.6,1.6-1.7l2.4-0.3c0.7,0,1.1,0.2,1.3,0.6c0.2,0.4,0.3,0.9,0.3,1.5V53h8.5c0.6,0,1.1,0.1,1.4,0.4s0.5,0.8,0.5,1.4v1.6
			c0,0.7-0.2,1.1-0.5,1.4s-0.8,0.4-1.4,0.4h-8.5v30.2c0,1.7,0.1,3.1,0.3,4c0.2,1,0.6,1.7,1.1,2.2c0.5,0.5,1.1,0.8,1.8,1
			c0.7,0.1,1.6,0.3,2.7,0.4H431.6z"/>
		<path class="st2" d="M468,62.9c-1-1.7-2.4-3.1-4.2-4.2c-1.8-1.1-3.8-1.6-6-1.6c-1.4,0-2.7,0.2-3.9,0.6s-2.2,0.9-3,1.7
			c-0.8,0.7-1.5,1.6-2,2.6s-0.7,2.1-0.7,3.3c0,1.2,0.3,2.2,0.9,3.1c0.6,0.9,1.4,1.7,2.3,2.3c0.9,0.6,1.9,1.2,3,1.6s2.1,0.8,3.1,1
			l1.5,0.4c2.4,0.7,4.5,1.5,6.4,2.4c1.9,0.9,3.5,2,4.9,3.3s2.4,2.6,3.1,4.1c0.7,1.5,1.1,3.1,1.1,4.8c0,2.2-0.5,4.2-1.4,5.9
			c-0.9,1.7-2.1,3.2-3.7,4.4s-3.3,2.1-5.4,2.7c-2,0.6-4.2,0.9-6.4,0.9c-1.9,0-3.6-0.2-5.4-0.6c-1.7-0.4-3.3-1.1-4.8-1.9
			c-1.5-0.8-2.7-1.9-3.8-3.1c-1.1-1.3-1.9-2.7-2.4-4.3c-0.1-0.2-0.1-0.4-0.1-0.6c0-0.3,0.1-0.5,0.3-0.9c0.2-0.3,0.5-0.5,0.9-0.7
			l1.9-0.8c0.3-0.1,0.5-0.1,0.7-0.1c0.3,0,0.6,0.1,0.8,0.3c0.2,0.2,0.4,0.4,0.6,0.7l0.2,0.5c0.5,1,1.2,2,2.1,2.8
			c0.9,0.8,1.8,1.5,2.8,2.1c1,0.6,2.1,1,3.1,1.2c1.1,0.3,2,0.4,2.9,0.4c1.2,0,2.4-0.2,3.8-0.5s2.6-0.9,3.7-1.6
			c1.1-0.7,2.1-1.6,2.8-2.7c0.8-1.1,1.1-2.4,1.1-3.9c0-1.4-0.4-2.6-1.1-3.7c-0.8-1.1-1.7-2-2.9-2.7c-1.2-0.8-2.5-1.4-3.9-1.9
			c-1.4-0.5-2.8-0.9-4.2-1.3c-1.7-0.5-3.4-1.1-5.1-2c-1.7-0.8-3.2-1.8-4.5-2.9c-1.3-1.1-2.4-2.4-3.2-3.8c-0.8-1.4-1.2-3-1.2-4.7
			c0-2,0.4-3.8,1.1-5.4c0.7-1.6,1.7-3,3-4.2s2.9-2.1,4.7-2.7s3.9-1,6.1-1c3.3,0,6.2,0.7,8.8,2.1c2.6,1.4,4.8,3.6,6.5,6.6
			c0.2,0.4,0.2,0.7,0.2,1c0,0.2-0.1,0.5-0.2,0.7c-0.1,0.2-0.3,0.4-0.6,0.6l-1.7,1c-0.5,0.3-0.8,0.4-1.2,0.4c-0.4,0-0.6-0.1-0.8-0.3
			c-0.2-0.2-0.4-0.5-0.6-0.8L468,62.9L468,62.9z"/>
	</g>
</g>
</svg>
